<?xml version="1.0" encoding="utf-8"?>
<!-- Generator: Adobe Illustrator 18.0.0, SVG Export Plug-In . SVG Version: 6.00 Build 0)  -->
<!DOCTYPE svg PUBLIC "-//W3C//DTD SVG 1.1//EN" "http://www.w3.org/Graphics/SVG/1.1/DTD/svg11.dtd">
<svg version="1.1" id="Layer_1" xmlns="http://www.w3.org/2000/svg" xmlns:xlink="http://www.w3.org/1999/xlink" x="0px" y="0px"
	 viewBox="213.2 30.4 415.4 415.4" enable-background="new 213.2 30.4 415.4 415.4" xml:space="preserve">
<path fill="#878787" d="M230.5,445.8c-9.5,0-17.2-7.7-17.2-17.2v-381c0-9.5,7.7-17.2,17.2-17.2h381c9.5,0,17.2,7.7,17.2,17.2v381
	c0,9.5-7.7,17.2-17.2,17.2H230.5z M247.7,411.4h346.5V64.9H247.7V411.4z"/>
<path fill="#878787" d="M540.4,193c-9.5,0-17.2-7.7-17.2-17.2v-39.9h-39.9c-9.5,0-17.2-7.7-17.2-17.2s7.7-17.2,17.2-17.2h57.1
	c9.5,0,17.2,7.7,17.2,17.2v57.1C557.7,185.3,549.9,193,540.4,193z"/>
<path fill="#878787" d="M301.5,374.8c-9.5,0-17.2-7.7-17.2-17.2v-57.1c0-9.5,7.7-17.2,17.2-17.2s17.2,7.7,17.2,17.2v39.9h39.9
	c9.5,0,17.2,7.7,17.2,17.2c0,9.5-7.7,17.2-17.2,17.2H301.5z"/>
</svg>
